<?xml version="1.0" encoding="UTF-8"?>
<svg id="Layer_2" data-name="Layer 2" xmlns="http://www.w3.org/2000/svg" viewBox="0 0 996.06 164.13">
  <defs>
    <style>
		g {
			line-height: 0;
		}
      .cls-1 {
        fill: #000;
        stroke-width: 0px;
      }
    </style>
  </defs>
  <g id="Layer_1-2" data-name="Layer 1">
    <g>
      <path class="cls-1" d="M0,18.91h9.31v15.45H0v-15.45Z"/>
      <path class="cls-1" d="M9.31,18.91h9.31v15.45h-9.31v-15.45Z"/>
      <path class="cls-1" d="M18.62,18.91h9.31v15.45h-9.31v-15.45Z"/>
      <path class="cls-1" d="M27.93,26.08v-1.12h6.33v9.4h-1.12v-8.28h-5.21ZM27.93,28.31v-1.12h4.1v7.17h-1.12v-6.05h-2.98Z"/>
      <path class="cls-1" d="M65.16,18.91h9.31v15.45h-9.31v-15.45Z"/>
      <path class="cls-1" d="M74.47,18.91h9.31v15.45h-9.31v-15.45Z"/>
      <path class="cls-1" d="M83.78,18.91h9.31v15.45h-9.31v-15.45Z"/>
      <path class="cls-1" d="M93.09,26.08v-1.12h6.33v9.4h-1.12v-8.28h-5.21ZM93.09,28.31v-1.12h4.1v7.17h-1.12v-6.05h-2.98Z"/>
      <path class="cls-1" d="M111.71,18.91h9.31v15.45h-9.31v-15.45Z"/>
      <path class="cls-1" d="M121.02,18.91h9.31v15.45h-9.31v-15.45Z"/>
      <path class="cls-1" d="M130.33,18.91h9.31v15.45h-9.31v-15.45Z"/>
      <path class="cls-1" d="M139.63,18.91h9.31v15.45h-9.31v-15.45Z"/>
      <path class="cls-1" d="M148.94,18.91h9.31v15.45h-9.31v-15.45Z"/>
      <path class="cls-1" d="M158.25,26.08v-1.12h6.33v9.4h-1.12v-8.28h-5.21ZM158.25,28.31v-1.12h4.1v7.17h-1.12v-6.05h-2.98Z"/>
      <path class="cls-1" d="M176.87,18.91h9.31v15.45h-9.31v-15.45Z"/>
      <path class="cls-1" d="M186.18,18.91h9.31v15.45h-9.31v-15.45Z"/>
      <path class="cls-1" d="M195.49,26.08v-1.12h6.33v9.4h-1.12v-8.28h-5.21ZM195.49,28.31v-1.12h4.1v7.17h-1.12v-6.05h-2.98Z"/>
      <path class="cls-1" d="M223.41,18.91h9.31v15.45h-9.31v-15.45Z"/>
      <path class="cls-1" d="M232.72,18.91h9.31v15.45h-9.31v-15.45Z"/>
      <path class="cls-1" d="M242.03,26.08v-1.12h6.33v9.4h-1.12v-8.28h-5.21ZM242.03,28.31v-1.12h4.1v7.17h-1.12v-6.05h-2.98Z"/>
      <path class="cls-1" d="M251.34,18.91h9.31v15.45h-9.31v-15.45Z"/>
      <path class="cls-1" d="M260.65,18.91h9.31v15.45h-9.31v-15.45Z"/>
      <path class="cls-1" d="M269.96,26.08v-1.12h6.33v9.4h-1.12v-8.28h-5.21ZM269.96,28.31v-1.12h4.1v7.17h-1.12v-6.05h-2.98Z"/>
      <path class="cls-1" d="M279.27,18.91h9.31v15.45h-9.31v-15.45Z"/>
      <path class="cls-1" d="M288.58,18.91h9.31v15.45h-9.31v-15.45Z"/>
      <path class="cls-1" d="M297.89,18.91h9.31v15.45h-9.31v-15.45Z"/>
      <path class="cls-1" d="M307.19,26.08v-1.12h6.33v9.4h-1.12v-8.28h-5.21ZM307.19,28.31v-1.12h4.1v7.17h-1.12v-6.05h-2.98Z"/>
      <path class="cls-1" d="M344.43,18.91h9.31v15.45h-9.31v-15.45Z"/>
      <path class="cls-1" d="M353.74,18.91h9.31v15.45h-9.31v-15.45Z"/>
      <path class="cls-1" d="M363.05,18.91h9.31v15.45h-9.31v-15.45Z"/>
      <path class="cls-1" d="M372.36,26.08v-1.12h6.33v9.4h-1.12v-8.28h-5.21ZM372.36,28.31v-1.12h4.1v7.17h-1.12v-6.05h-2.98Z"/>
      <path class="cls-1" d="M390.98,18.91h9.31v15.45h-9.31v-15.45Z"/>
      <path class="cls-1" d="M400.28,18.91h9.31v15.45h-9.31v-15.45Z"/>
      <path class="cls-1" d="M409.59,18.91h9.31v15.45h-9.31v-15.45Z"/>
      <path class="cls-1" d="M418.9,18.91h9.31v15.45h-9.31v-15.45Z"/>
      <path class="cls-1" d="M428.21,18.91h9.31v15.45h-9.31v-15.45Z"/>
      <path class="cls-1" d="M437.52,18.91h9.31v15.45h-9.31v-15.45Z"/>
      <path class="cls-1" d="M446.83,26.08v-1.12h6.33v9.4h-1.12v-8.28h-5.21ZM446.83,28.31v-1.12h4.1v7.17h-1.12v-6.05h-2.98Z"/>
      <path class="cls-1" d="M511.99,18.91h9.31v15.45h-9.31v-15.45Z"/>
      <path class="cls-1" d="M521.3,18.91h9.31v15.45h-9.31v-15.45Z"/>
      <path class="cls-1" d="M530.61,18.91h9.31v15.45h-9.31v-15.45Z"/>
      <path class="cls-1" d="M539.92,18.91h9.31v15.45h-9.31v-15.45Z"/>
      <path class="cls-1" d="M549.23,18.91h9.31v15.45h-9.31v-15.45Z"/>
      <path class="cls-1" d="M558.54,18.91h9.31v15.45h-9.31v-15.45Z"/>
      <path class="cls-1" d="M567.84,26.08v-1.12h6.33v9.4h-1.12v-8.28h-5.21ZM567.84,28.31v-1.12h4.1v7.17h-1.12v-6.05h-2.98Z"/>
      <path class="cls-1" d="M586.46,18.91h9.31v15.45h-9.31v-15.45Z"/>
      <path class="cls-1" d="M595.77,18.91h9.31v15.45h-9.31v-15.45Z"/>
      <path class="cls-1" d="M605.08,18.91h9.31v15.45h-9.31v-15.45Z"/>
      <path class="cls-1" d="M614.39,18.91h9.31v15.45h-9.31v-15.45Z"/>
      <path class="cls-1" d="M623.7,18.91h9.31v15.45h-9.31v-15.45Z"/>
      <path class="cls-1" d="M633.01,18.91h9.31v15.45h-9.31v-15.45Z"/>
      <path class="cls-1" d="M642.32,18.91h9.31v15.45h-9.31v-15.45Z"/>
      <path class="cls-1" d="M651.62,26.08v-1.12h6.33v9.4h-1.12v-8.28h-5.21ZM651.62,28.31v-1.12h4.1v7.17h-1.12v-6.05h-2.98Z"/>
      <path class="cls-1" d="M660.93,18.91h9.31v15.45h-9.31v-15.45Z"/>
      <path class="cls-1" d="M670.24,18.91h9.31v15.45h-9.31v-15.45Z"/>
      <path class="cls-1" d="M679.55,18.91h9.31v15.45h-9.31v-15.45Z"/>
      <path class="cls-1" d="M688.86,18.91h9.31v15.45h-9.31v-15.45Z"/>
      <path class="cls-1" d="M698.17,18.91h9.31v15.45h-9.31v-15.45Z"/>
      <path class="cls-1" d="M707.48,18.91h9.31v15.45h-9.31v-15.45Z"/>
      <path class="cls-1" d="M716.79,26.08v-1.12h6.33v9.4h-1.12v-8.28h-5.21ZM716.79,28.31v-1.12h4.1v7.17h-1.12v-6.05h-2.98Z"/>
      <path class="cls-1" d="M735.41,18.91h9.31v15.45h-9.31v-15.45Z"/>
      <path class="cls-1" d="M744.71,18.91h9.31v15.45h-9.31v-15.45Z"/>
      <path class="cls-1" d="M754.02,26.08v-1.12h6.33v9.4h-1.12v-8.28h-5.21ZM754.02,28.31v-1.12h4.1v7.17h-1.12v-6.05h-2.98Z"/>
      <path class="cls-1" d="M763.33,18.91h9.31v15.45h-9.31v-15.45Z"/>
      <path class="cls-1" d="M772.64,18.91h9.31v15.45h-9.31v-15.45Z"/>
      <path class="cls-1" d="M781.95,18.91h9.31v15.45h-9.31v-15.45Z"/>
      <path class="cls-1" d="M791.26,18.91h9.31v15.45h-9.31v-15.45Z"/>
      <path class="cls-1" d="M800.57,18.91h9.31v15.45h-9.31v-15.45Z"/>
      <path class="cls-1" d="M809.88,18.91h9.31v15.45h-9.31v-15.45Z"/>
      <path class="cls-1" d="M819.19,18.91h9.31v15.45h-9.31v-15.45Z"/>
      <path class="cls-1" d="M828.5,18.91h9.31v15.45h-9.31v-15.45Z"/>
      <path class="cls-1" d="M837.8,26.08v-1.12h6.33v9.4h-1.12v-8.28h-5.21ZM837.8,28.31v-1.12h4.1v7.17h-1.12v-6.05h-2.98Z"/>
      <path class="cls-1" d="M856.42,18.91h9.31v15.45h-9.31v-15.45Z"/>
      <path class="cls-1" d="M865.73,18.91h9.31v15.45h-9.31v-15.45Z"/>
      <path class="cls-1" d="M875.04,18.91h9.31v15.45h-9.31v-15.45Z"/>
      <path class="cls-1" d="M884.35,18.91h9.31v15.45h-9.31v-15.45Z"/>
      <path class="cls-1" d="M893.66,18.91h9.31v15.45h-9.31v-15.45Z"/>
      <path class="cls-1" d="M902.97,26.08v-1.12h6.33v9.4h-1.12v-8.28h-5.21ZM902.97,28.31v-1.12h4.1v7.17h-1.12v-6.05h-2.98Z"/>
      <path class="cls-1" d="M921.59,18.91h9.31v15.45h-9.31v-15.45Z"/>
      <path class="cls-1" d="M930.89,18.91h9.31v15.45h-9.31v-15.45Z"/>
      <path class="cls-1" d="M940.2,26.08v-1.12h6.33v9.4h-1.12v-8.28h-5.21ZM940.2,28.31v-1.12h4.1v7.17h-1.12v-6.05h-2.98Z"/>
      <path class="cls-1" d="M0,37.45h9.31v15.45H0v-15.45Z"/>
      <path class="cls-1" d="M9.31,37.45h9.31v15.45h-9.31v-15.45Z"/>
      <path class="cls-1" d="M18.62,37.45h9.31v15.45h-9.31v-15.45Z"/>
      <path class="cls-1" d="M27.93,37.45h9.31v15.45h-9.31v-15.45Z"/>
      <path class="cls-1" d="M37.24,44.62v-1.12h6.33v9.4h-1.12v-8.28h-5.21ZM37.24,46.85v-1.12h4.1v7.17h-1.12v-6.05h-2.98Z"/>
      <path class="cls-1" d="M55.85,37.45h9.31v15.45h-9.31v-15.45Z"/>
      <path class="cls-1" d="M65.16,37.45h9.31v15.45h-9.31v-15.45Z"/>
      <path class="cls-1" d="M74.47,37.45h9.31v15.45h-9.31v-15.45Z"/>
      <path class="cls-1" d="M83.78,37.45h9.31v15.45h-9.31v-15.45Z"/>
      <path class="cls-1" d="M96.07,52.9v-15.45h1.12v15.45h-1.12ZM98.3,52.9v-15.45h1.12v15.45h-1.12Z"/>
      <path class="cls-1" d="M102.4,37.45h9.31v15.45h-9.31v-15.45Z"/>
      <path class="cls-1" d="M111.71,37.45h9.31v15.45h-9.31v-15.45Z"/>
      <path class="cls-1" d="M130.33,43.5v1.12h-5.21v8.28h-1.12v-9.4h6.33ZM130.33,46.85h-2.98v6.05h-1.12v-7.17h4.1v1.12Z"/>
      <path class="cls-1" d="M130.33,44.62v-1.12h9.31v1.12h-9.31ZM130.33,46.85v-1.12h9.31v1.12h-9.31Z"/>
      <path class="cls-1" d="M139.63,44.62v-1.12h9.31v1.12h-9.31ZM139.63,46.85v-1.12h9.31v1.12h-9.31Z"/>
      <path class="cls-1" d="M148.94,37.45h9.31v15.45h-9.31v-15.45Z"/>
      <path class="cls-1" d="M158.25,37.45h9.31v15.45h-9.31v-15.45Z"/>
      <path class="cls-1" d="M167.56,44.62v-1.12h6.33v9.4h-1.12v-8.28h-5.21ZM167.56,46.85v-1.12h4.1v7.17h-1.12v-6.05h-2.98Z"/>
      <path class="cls-1" d="M186.18,46.85h-6.33v-9.4h1.12v8.28h5.21v1.12ZM186.18,44.62h-4.1v-7.17h1.12v6.05h2.98v1.12Z"/>
      <path class="cls-1" d="M186.18,37.45h9.31v15.45h-9.31v-15.45Z"/>
      <path class="cls-1" d="M195.49,37.45h9.31v15.45h-9.31v-15.45Z"/>
      <path class="cls-1" d="M204.8,44.62v-1.12h6.33v9.4h-1.12v-8.28h-5.21ZM204.8,46.85v-1.12h4.1v7.17h-1.12v-6.05h-2.98Z"/>
      <path class="cls-1" d="M214.11,37.45h9.31v15.45h-9.31v-15.45Z"/>
      <path class="cls-1" d="M223.41,37.45h9.31v15.45h-9.31v-15.45Z"/>
      <path class="cls-1" d="M242.03,43.5v1.12h-5.21v8.28h-1.12v-9.4h6.33ZM242.03,46.85h-2.98v6.05h-1.12v-7.17h4.1v1.12Z"/>
      <path class="cls-1" d="M242.03,46.85v-1.12h5.21v-8.28h1.12v9.4h-6.33ZM242.03,44.62v-1.12h2.98v-6.05h1.12v7.17h-4.1Z"/>
      <path class="cls-1" d="M251.34,37.45h9.31v15.45h-9.31v-15.45Z"/>
      <path class="cls-1" d="M260.65,37.45h9.31v15.45h-9.31v-15.45Z"/>
      <path class="cls-1" d="M272.94,52.9v-15.45h1.12v15.45h-1.12ZM275.17,52.9v-15.45h1.12v15.45h-1.12Z"/>
      <path class="cls-1" d="M279.27,37.45h9.31v15.45h-9.31v-15.45Z"/>
      <path class="cls-1" d="M288.58,37.45h9.31v15.45h-9.31v-15.45Z"/>
      <path class="cls-1" d="M297.89,37.45h9.31v15.45h-9.31v-15.45Z"/>
      <path class="cls-1" d="M307.19,37.45h9.31v15.45h-9.31v-15.45Z"/>
      <path class="cls-1" d="M316.5,44.62v-1.12h6.33v9.4h-1.12v-8.28h-5.21ZM316.5,46.85v-1.12h4.1v7.17h-1.12v-6.05h-2.98Z"/>
      <path class="cls-1" d="M335.12,37.45h9.31v15.45h-9.31v-15.45Z"/>
      <path class="cls-1" d="M344.43,37.45h9.31v15.45h-9.31v-15.45Z"/>
      <path class="cls-1" d="M353.74,37.45h9.31v15.45h-9.31v-15.45Z"/>
      <path class="cls-1" d="M363.05,37.45h9.31v15.45h-9.31v-15.45Z"/>
      <path class="cls-1" d="M375.34,52.9v-15.45h1.12v15.45h-1.12ZM377.57,52.9v-15.45h1.12v15.45h-1.12Z"/>
      <path class="cls-1" d="M381.67,37.45h9.31v15.45h-9.31v-15.45Z"/>
      <path class="cls-1" d="M390.98,37.45h9.31v15.45h-9.31v-15.45Z"/>
      <path class="cls-1" d="M409.59,43.5v1.12h-5.21v8.28h-1.12v-9.4h6.33ZM409.59,46.85h-2.98v6.05h-1.12v-7.17h4.1v1.12Z"/>
      <path class="cls-1" d="M409.59,44.62v-1.12h9.31v1.12h-9.31ZM409.59,46.85v-1.12h9.31v1.12h-9.31Z"/>
      <path class="cls-1" d="M418.9,44.62v-1.12h9.31v1.12h-9.31ZM418.9,46.85v-1.12h9.31v1.12h-9.31Z"/>
      <path class="cls-1" d="M428.21,44.62v-1.12h9.31v1.12h-9.31ZM428.21,46.85v-1.12h9.31v1.12h-9.31Z"/>
      <path class="cls-1" d="M437.52,37.45h9.31v15.45h-9.31v-15.45Z"/>
      <path class="cls-1" d="M446.83,37.45h9.31v15.45h-9.31v-15.45Z"/>
      <path class="cls-1" d="M456.14,44.62v-1.12h6.33v9.4h-1.12v-8.28h-5.21ZM456.14,46.85v-1.12h4.1v7.17h-1.12v-6.05h-2.98Z"/>
      <path class="cls-1" d="M502.68,37.45h9.31v15.45h-9.31v-15.45Z"/>
      <path class="cls-1" d="M511.99,37.45h9.31v15.45h-9.31v-15.45Z"/>
      <path class="cls-1" d="M530.61,43.5v1.12h-5.21v8.28h-1.12v-9.4h6.33ZM530.61,46.85h-2.98v6.05h-1.12v-7.17h4.1v1.12Z"/>
      <path class="cls-1" d="M530.61,44.62v-1.12h9.31v1.12h-9.31ZM530.61,46.85v-1.12h9.31v1.12h-9.31Z"/>
      <path class="cls-1" d="M539.92,44.62v-1.12h9.31v1.12h-9.31ZM539.92,46.85v-1.12h9.31v1.12h-9.31Z"/>
      <path class="cls-1" d="M549.23,44.62v-1.12h9.31v1.12h-9.31ZM549.23,46.85v-1.12h9.31v1.12h-9.31Z"/>
      <path class="cls-1" d="M558.54,37.45h9.31v15.45h-9.31v-15.45Z"/>
      <path class="cls-1" d="M567.84,37.45h9.31v15.45h-9.31v-15.45Z"/>
      <path class="cls-1" d="M577.15,44.62v-1.12h6.33v9.4h-1.12v-8.28h-5.21ZM577.15,46.85v-1.12h4.1v7.17h-1.12v-6.05h-2.98Z"/>
      <path class="cls-1" d="M586.46,37.45h9.31v15.45h-9.31v-15.45Z"/>
      <path class="cls-1" d="M595.77,37.45h9.31v15.45h-9.31v-15.45Z"/>
      <path class="cls-1" d="M614.39,43.5v1.12h-5.21v8.28h-1.12v-9.4h6.33ZM614.39,46.85h-2.98v6.05h-1.12v-7.17h4.1v1.12Z"/>
      <path class="cls-1" d="M614.39,44.62v-1.12h9.31v1.12h-9.31ZM614.39,46.85v-1.12h9.31v1.12h-9.31Z"/>
      <path class="cls-1" d="M623.7,44.62v-1.12h9.31v1.12h-9.31ZM623.7,46.85v-1.12h9.31v1.12h-9.31Z"/>
      <path class="cls-1" d="M633.01,44.62v-1.12h9.31v1.12h-9.31ZM633.01,46.85v-1.12h9.31v1.12h-9.31Z"/>
      <path class="cls-1" d="M642.32,44.62v-1.12h9.31v1.12h-9.31ZM642.32,46.85v-1.12h9.31v1.12h-9.31Z"/>
      <path class="cls-1" d="M651.62,46.85v-1.12h5.21v-8.28h1.12v9.4h-6.33ZM651.62,44.62v-1.12h2.98v-6.05h1.12v7.17h-4.1Z"/>
      <path class="cls-1" d="M660.93,37.45h9.31v15.45h-9.31v-15.45Z"/>
      <path class="cls-1" d="M670.24,37.45h9.31v15.45h-9.31v-15.45Z"/>
      <path class="cls-1" d="M688.86,43.5v1.12h-5.21v8.28h-1.12v-9.4h6.33ZM688.86,46.85h-2.98v6.05h-1.12v-7.17h4.1v1.12Z"/>
      <path class="cls-1" d="M688.86,44.62v-1.12h9.31v1.12h-9.31ZM688.86,46.85v-1.12h9.31v1.12h-9.31Z"/>
      <path class="cls-1" d="M698.17,44.62v-1.12h9.31v1.12h-9.31ZM698.17,46.85v-1.12h9.31v1.12h-9.31Z"/>
      <path class="cls-1" d="M707.48,37.45h9.31v15.45h-9.31v-15.45Z"/>
      <path class="cls-1" d="M716.79,37.45h9.31v15.45h-9.31v-15.45Z"/>
      <path class="cls-1" d="M726.1,44.62v-1.12h6.33v9.4h-1.12v-8.28h-5.21ZM726.1,46.85v-1.12h4.1v7.17h-1.12v-6.05h-2.98Z"/>
      <path class="cls-1" d="M735.41,37.45h9.31v15.45h-9.31v-15.45Z"/>
      <path class="cls-1" d="M744.71,37.45h9.31v15.45h-9.31v-15.45Z"/>
      <path class="cls-1" d="M757,52.9v-15.45h1.12v15.45h-1.12ZM759.24,52.9v-15.45h1.12v15.45h-1.12Z"/>
      <path class="cls-1" d="M772.64,46.85h-6.33v-9.4h1.12v8.28h5.21v1.12ZM772.64,44.62h-4.1v-7.17h1.12v6.05h2.98v1.12Z"/>
      <path class="cls-1" d="M772.64,44.62v-1.12h9.31v1.12h-9.31ZM772.64,46.85v-1.12h9.31v1.12h-9.31Z"/>
      <path class="cls-1" d="M781.95,44.62v-1.12h9.31v1.12h-9.31ZM781.95,46.85v-1.12h9.31v1.12h-9.31Z"/>
      <path class="cls-1" d="M791.26,37.45h9.31v15.45h-9.31v-15.45Z"/>
      <path class="cls-1" d="M800.57,37.45h9.31v15.45h-9.31v-15.45Z"/>
      <path class="cls-1" d="M819.19,43.5v1.12h-5.21v8.28h-1.12v-9.4h6.33ZM819.19,46.85h-2.98v6.05h-1.12v-7.17h4.1v1.12Z"/>
      <path class="cls-1" d="M819.19,44.62v-1.12h9.31v1.12h-9.31ZM819.19,46.85v-1.12h9.31v1.12h-9.31Z"/>
      <path class="cls-1" d="M828.5,44.62v-1.12h9.31v1.12h-9.31ZM828.5,46.85v-1.12h9.31v1.12h-9.31Z"/>
      <path class="cls-1" d="M837.8,46.85v-1.12h5.21v-8.28h1.12v9.4h-6.33ZM837.8,44.62v-1.12h2.98v-6.05h1.12v7.17h-4.1Z"/>
      <path class="cls-1" d="M847.11,37.45h9.31v15.45h-9.31v-15.45Z"/>
      <path class="cls-1" d="M856.42,37.45h9.31v15.45h-9.31v-15.45Z"/>
      <path class="cls-1" d="M875.04,43.5v1.12h-5.21v8.28h-1.12v-9.4h6.33ZM875.04,46.85h-2.98v6.05h-1.12v-7.17h4.1v1.12Z"/>
      <path class="cls-1" d="M875.04,44.62v-1.12h9.31v1.12h-9.31ZM875.04,46.85v-1.12h9.31v1.12h-9.31Z"/>
      <path class="cls-1" d="M884.35,44.62v-1.12h9.31v1.12h-9.31ZM884.35,46.85v-1.12h9.31v1.12h-9.31Z"/>
      <path class="cls-1" d="M893.66,37.45h9.31v15.45h-9.31v-15.45Z"/>
      <path class="cls-1" d="M902.97,37.45h9.31v15.45h-9.31v-15.45Z"/>
      <path class="cls-1" d="M912.28,44.62v-1.12h6.33v9.4h-1.12v-8.28h-5.21ZM912.28,46.85v-1.12h4.1v7.17h-1.12v-6.05h-2.98Z"/>
      <path class="cls-1" d="M921.59,37.45h9.31v15.45h-9.31v-15.45Z"/>
      <path class="cls-1" d="M930.89,37.45h9.31v15.45h-9.31v-15.45Z"/>
      <path class="cls-1" d="M943.18,52.9v-15.45h1.12v15.45h-1.12ZM945.42,52.9v-15.45h1.12v15.45h-1.12Z"/>
      <path class="cls-1" d="M0,55.99h9.31v15.45H0v-15.45Z"/>
      <path class="cls-1" d="M9.31,55.99h9.31v15.45h-9.31v-15.45Z"/>
      <path class="cls-1" d="M27.93,62.04v1.12h-5.21v8.28h-1.12v-9.4h6.33ZM27.93,65.39h-2.98v6.05h-1.12v-7.17h4.1v1.12Z"/>
      <path class="cls-1" d="M27.93,55.99h9.31v15.45h-9.31v-15.45Z"/>
      <path class="cls-1" d="M37.24,55.99h9.31v15.45h-9.31v-15.45Z"/>
      <path class="cls-1" d="M46.54,55.99h9.31v15.45h-9.31v-15.45Z"/>
      <path class="cls-1" d="M55.85,55.99h9.31v15.45h-9.31v-15.45Z"/>
      <path class="cls-1" d="M74.47,62.04v1.12h-5.21v8.28h-1.12v-9.4h6.33ZM74.47,65.39h-2.98v6.05h-1.12v-7.17h4.1v1.12Z"/>
      <path class="cls-1" d="M74.47,55.99h9.31v15.45h-9.31v-15.45Z"/>
      <path class="cls-1" d="M83.78,55.99h9.31v15.45h-9.31v-15.45Z"/>
      <path class="cls-1" d="M96.07,71.44v-15.45h1.12v15.45h-1.12ZM98.3,71.44v-15.45h1.12v15.45h-1.12Z"/>
      <path class="cls-1" d="M102.4,55.99h9.31v15.45h-9.31v-15.45Z"/>
      <path class="cls-1" d="M111.71,55.99h9.31v15.45h-9.31v-15.45Z"/>
      <path class="cls-1" d="M121.02,55.99h9.31v15.45h-9.31v-15.45Z"/>
      <path class="cls-1" d="M130.33,55.99h9.31v15.45h-9.31v-15.45Z"/>
      <path class="cls-1" d="M139.63,55.99h9.31v15.45h-9.31v-15.45Z"/>
      <path class="cls-1" d="M148.94,55.99h9.31v15.45h-9.31v-15.45Z"/>
      <path class="cls-1" d="M158.25,55.99h9.31v15.45h-9.31v-15.45Z"/>
      <path class="cls-1" d="M170.54,71.44v-15.45h1.12v15.45h-1.12ZM172.77,71.44v-15.45h1.12v15.45h-1.12Z"/>
      <path class="cls-1" d="M195.49,65.39h-6.33v-9.4h1.12v8.28h5.21v1.12ZM195.49,63.15h-4.1v-7.17h1.12v6.05h2.98v1.12Z"/>
      <path class="cls-1" d="M195.49,55.99h9.31v15.45h-9.31v-15.45Z"/>
      <path class="cls-1" d="M204.8,55.99h9.31v15.45h-9.31v-15.45Z"/>
      <path class="cls-1" d="M214.11,55.99h9.31v15.45h-9.31v-15.45Z"/>
      <path class="cls-1" d="M232.72,62.04v1.12h-5.21v8.28h-1.12v-9.4h6.33ZM232.72,65.39h-2.98v6.05h-1.12v-7.17h4.1v1.12Z"/>
      <path class="cls-1" d="M232.72,65.39v-1.12h5.21v-8.28h1.12v9.4h-6.33ZM232.72,63.15v-1.12h2.98v-6.05h1.12v7.17h-4.1Z"/>
      <path class="cls-1" d="M251.34,55.99h9.31v15.45h-9.31v-15.45Z"/>
      <path class="cls-1" d="M260.65,55.99h9.31v15.45h-9.31v-15.45Z"/>
      <path class="cls-1" d="M272.94,71.44v-15.45h1.12v15.45h-1.12ZM275.17,71.44v-15.45h1.12v15.45h-1.12Z"/>
      <path class="cls-1" d="M279.27,55.99h9.31v15.45h-9.31v-15.45Z"/>
      <path class="cls-1" d="M288.58,55.99h9.31v15.45h-9.31v-15.45Z"/>
      <path class="cls-1" d="M307.19,62.04v1.12h-5.21v8.28h-1.12v-9.4h6.33ZM307.19,65.39h-2.98v6.05h-1.12v-7.17h4.1v1.12Z"/>
      <path class="cls-1" d="M307.19,55.99h9.31v15.45h-9.31v-15.45Z"/>
      <path class="cls-1" d="M316.5,55.99h9.31v15.45h-9.31v-15.45Z"/>
      <path class="cls-1" d="M325.81,55.99h9.31v15.45h-9.31v-15.45Z"/>
      <path class="cls-1" d="M335.12,55.99h9.31v15.45h-9.31v-15.45Z"/>
      <path class="cls-1" d="M353.74,62.04v1.12h-5.21v8.28h-1.12v-9.4h6.33ZM353.74,65.39h-2.98v6.05h-1.12v-7.17h4.1v1.12Z"/>
      <path class="cls-1" d="M353.74,55.99h9.31v15.45h-9.31v-15.45Z"/>
      <path class="cls-1" d="M363.05,55.99h9.31v15.45h-9.31v-15.45Z"/>
      <path class="cls-1" d="M375.34,71.44v-15.45h1.12v15.45h-1.12ZM377.57,71.44v-15.45h1.12v15.45h-1.12Z"/>
      <path class="cls-1" d="M381.67,55.99h9.31v15.45h-9.31v-15.45Z"/>
      <path class="cls-1" d="M390.98,55.99h9.31v15.45h-9.31v-15.45Z"/>
      <path class="cls-1" d="M403.26,71.44v-15.45h1.12v15.45h-1.12ZM405.5,71.44v-15.45h1.12v15.45h-1.12Z"/>
      <path class="cls-1" d="M437.52,55.99h9.31v15.45h-9.31v-15.45Z"/>
      <path class="cls-1" d="M446.83,55.99h9.31v15.45h-9.31v-15.45Z"/>
      <path class="cls-1" d="M459.12,71.44v-15.45h1.12v15.45h-1.12ZM461.35,71.44v-15.45h1.12v15.45h-1.12Z"/>
      <path class="cls-1" d="M502.68,55.99h9.31v15.45h-9.31v-15.45Z"/>
      <path class="cls-1" d="M511.99,55.99h9.31v15.45h-9.31v-15.45Z"/>
      <path class="cls-1" d="M524.28,71.44v-15.45h1.12v15.45h-1.12ZM526.51,71.44v-15.45h1.12v15.45h-1.12Z"/>
      <path class="cls-1" d="M558.54,55.99h9.31v15.45h-9.31v-15.45Z"/>
      <path class="cls-1" d="M567.84,55.99h9.31v15.45h-9.31v-15.45Z"/>
      <path class="cls-1" d="M580.13,71.44v-15.45h1.12v15.45h-1.12ZM582.37,71.44v-15.45h1.12v15.45h-1.12Z"/>
      <path class="cls-1" d="M586.46,55.99h9.31v15.45h-9.31v-15.45Z"/>
      <path class="cls-1" d="M595.77,55.99h9.31v15.45h-9.31v-15.45Z"/>
      <path class="cls-1" d="M605.08,55.99h9.31v15.45h-9.31v-15.45Z"/>
      <path class="cls-1" d="M614.39,55.99h9.31v15.45h-9.31v-15.45Z"/>
      <path class="cls-1" d="M623.7,55.99h9.31v15.45h-9.31v-15.45Z"/>
      <path class="cls-1" d="M633.01,55.99h9.31v15.45h-9.31v-15.45Z"/>
      <path class="cls-1" d="M642.32,55.99h9.31v15.45h-9.31v-15.45Z"/>
      <path class="cls-1" d="M651.62,63.15v-1.12h6.33v9.4h-1.12v-8.28h-5.21ZM651.62,65.39v-1.12h4.1v7.17h-1.12v-6.05h-2.98Z"/>
      <path class="cls-1" d="M660.93,55.99h9.31v15.45h-9.31v-15.45Z"/>
      <path class="cls-1" d="M670.24,55.99h9.31v15.45h-9.31v-15.45Z"/>
      <path class="cls-1" d="M679.55,55.99h9.31v15.45h-9.31v-15.45Z"/>
      <path class="cls-1" d="M688.86,55.99h9.31v15.45h-9.31v-15.45Z"/>
      <path class="cls-1" d="M698.17,55.99h9.31v15.45h-9.31v-15.45Z"/>
      <path class="cls-1" d="M707.48,55.99h9.31v15.45h-9.31v-15.45Z"/>
      <path class="cls-1" d="M726.1,62.04v1.12h-5.21v8.28h-1.12v-9.4h6.33ZM726.1,65.39h-2.98v6.05h-1.12v-7.17h4.1v1.12Z"/>
      <path class="cls-1" d="M726.1,65.39v-1.12h5.21v-8.28h1.12v9.4h-6.33ZM726.1,63.15v-1.12h2.98v-6.05h1.12v7.17h-4.1Z"/>
      <path class="cls-1" d="M735.41,55.99h9.31v15.45h-9.31v-15.45Z"/>
      <path class="cls-1" d="M744.71,55.99h9.31v15.45h-9.31v-15.45Z"/>
      <path class="cls-1" d="M757,71.44v-15.45h1.12v15.45h-1.12ZM759.24,71.44v-15.45h1.12v15.45h-1.12Z"/>
      <path class="cls-1" d="M791.26,55.99h9.31v15.45h-9.31v-15.45Z"/>
      <path class="cls-1" d="M800.57,55.99h9.31v15.45h-9.31v-15.45Z"/>
      <path class="cls-1" d="M812.86,71.44v-15.45h1.12v15.45h-1.12ZM815.09,71.44v-15.45h1.12v15.45h-1.12Z"/>
      <path class="cls-1" d="M847.11,55.99h9.31v15.45h-9.31v-15.45Z"/>
      <path class="cls-1" d="M856.42,55.99h9.31v15.45h-9.31v-15.45Z"/>
      <path class="cls-1" d="M865.73,55.99h9.31v15.45h-9.31v-15.45Z"/>
      <path class="cls-1" d="M875.04,55.99h9.31v15.45h-9.31v-15.45Z"/>
      <path class="cls-1" d="M884.35,55.99h9.31v15.45h-9.31v-15.45Z"/>
      <path class="cls-1" d="M893.66,55.99h9.31v15.45h-9.31v-15.45Z"/>
      <path class="cls-1" d="M902.97,55.99h9.31v15.45h-9.31v-15.45Z"/>
      <path class="cls-1" d="M915.26,71.44v-15.45h1.12v15.45h-1.12ZM917.49,71.44v-15.45h1.12v15.45h-1.12Z"/>
      <path class="cls-1" d="M921.59,55.99h9.31v15.45h-9.31v-15.45Z"/>
      <path class="cls-1" d="M930.89,55.99h9.31v15.45h-9.31v-15.45Z"/>
      <path class="cls-1" d="M943.18,71.44v-15.45h1.12v15.45h-1.12ZM945.42,71.44v-15.45h1.12v15.45h-1.12Z"/>
      <path class="cls-1" d="M0,74.53h9.31v15.45H0v-15.45Z"/>
      <path class="cls-1" d="M9.31,74.53h9.31v15.45h-9.31v-15.45Z"/>
      <path class="cls-1" d="M21.6,89.98v-15.45h1.12v15.45h-1.12ZM23.83,89.98v-15.45h1.12v15.45h-1.12Z"/>
      <path class="cls-1" d="M37.24,83.93h-6.33v-9.4h1.12v8.28h5.21v1.12ZM37.24,81.69h-4.1v-7.17h1.12v6.05h2.98v1.12Z"/>
      <path class="cls-1" d="M37.24,74.53h9.31v15.45h-9.31v-15.45Z"/>
      <path class="cls-1" d="M46.54,74.53h9.31v15.45h-9.31v-15.45Z"/>
      <path class="cls-1" d="M65.16,80.58v1.12h-5.21v8.28h-1.12v-9.4h6.33ZM65.16,83.93h-2.98v6.05h-1.12v-7.17h4.1v1.12Z"/>
      <path class="cls-1" d="M65.16,83.93v-1.12h5.21v-8.28h1.12v9.4h-6.33ZM65.16,81.69v-1.12h2.98v-6.05h1.12v7.17h-4.1Z"/>
      <path class="cls-1" d="M74.47,74.53h9.31v15.45h-9.31v-15.45Z"/>
      <path class="cls-1" d="M83.78,74.53h9.31v15.45h-9.31v-15.45Z"/>
      <path class="cls-1" d="M96.07,89.98v-15.45h1.12v15.45h-1.12ZM98.3,89.98v-15.45h1.12v15.45h-1.12Z"/>
      <path class="cls-1" d="M102.4,74.53h9.31v15.45h-9.31v-15.45Z"/>
      <path class="cls-1" d="M111.71,74.53h9.31v15.45h-9.31v-15.45Z"/>
      <path class="cls-1" d="M130.33,80.58v1.12h-5.21v8.28h-1.12v-9.4h6.33ZM130.33,83.93h-2.98v6.05h-1.12v-7.17h4.1v1.12Z"/>
      <path class="cls-1" d="M130.33,81.69v-1.12h9.31v1.12h-9.31ZM130.33,83.93v-1.12h9.31v1.12h-9.31Z"/>
      <path class="cls-1" d="M139.63,81.69v-1.12h9.31v1.12h-9.31ZM139.63,83.93v-1.12h9.31v1.12h-9.31Z"/>
      <path class="cls-1" d="M148.94,74.53h9.31v15.45h-9.31v-15.45Z"/>
      <path class="cls-1" d="M158.25,74.53h9.31v15.45h-9.31v-15.45Z"/>
      <path class="cls-1" d="M170.54,89.98v-15.45h1.12v15.45h-1.12ZM172.77,89.98v-15.45h1.12v15.45h-1.12Z"/>
      <path class="cls-1" d="M186.18,74.53h9.31v15.45h-9.31v-15.45Z"/>
      <path class="cls-1" d="M195.49,74.53h9.31v15.45h-9.31v-15.45Z"/>
      <path class="cls-1" d="M214.11,80.58v1.12h-5.21v8.28h-1.12v-9.4h6.33ZM214.11,83.93h-2.98v6.05h-1.12v-7.17h4.1v1.12Z"/>
      <path class="cls-1" d="M214.11,74.53h9.31v15.45h-9.31v-15.45Z"/>
      <path class="cls-1" d="M223.41,74.53h9.31v15.45h-9.31v-15.45Z"/>
      <path class="cls-1" d="M232.72,81.69v-1.12h6.33v9.4h-1.12v-8.28h-5.21ZM232.72,83.93v-1.12h4.1v7.17h-1.12v-6.05h-2.98Z"/>
      <path class="cls-1" d="M251.34,74.53h9.31v15.45h-9.31v-15.45Z"/>
      <path class="cls-1" d="M260.65,74.53h9.31v15.45h-9.31v-15.45Z"/>
      <path class="cls-1" d="M272.94,89.98v-15.45h1.12v15.45h-1.12ZM275.17,89.98v-15.45h1.12v15.45h-1.12Z"/>
      <path class="cls-1" d="M279.27,74.53h9.31v15.45h-9.31v-15.45Z"/>
      <path class="cls-1" d="M288.58,74.53h9.31v15.45h-9.31v-15.45Z"/>
      <path class="cls-1" d="M300.87,89.98v-15.45h1.12v15.45h-1.12ZM303.1,89.98v-15.45h1.12v15.45h-1.12Z"/>
      <path class="cls-1" d="M316.5,83.93h-6.33v-9.4h1.12v8.28h5.21v1.12ZM316.5,81.69h-4.1v-7.17h1.12v6.05h2.98v1.12Z"/>
      <path class="cls-1" d="M316.5,74.53h9.31v15.45h-9.31v-15.45Z"/>
      <path class="cls-1" d="M325.81,74.53h9.31v15.45h-9.31v-15.45Z"/>
      <path class="cls-1" d="M344.43,80.58v1.12h-5.21v8.28h-1.12v-9.4h6.33ZM344.43,83.93h-2.98v6.05h-1.12v-7.17h4.1v1.12Z"/>
      <path class="cls-1" d="M344.43,83.93v-1.12h5.21v-8.28h1.12v9.4h-6.33ZM344.43,81.69v-1.12h2.98v-6.05h1.12v7.17h-4.1Z"/>
      <path class="cls-1" d="M353.74,74.53h9.31v15.45h-9.31v-15.45Z"/>
      <path class="cls-1" d="M363.05,74.53h9.31v15.45h-9.31v-15.45Z"/>
      <path class="cls-1" d="M375.34,89.98v-15.45h1.12v15.45h-1.12ZM377.57,89.98v-15.45h1.12v15.45h-1.12Z"/>
      <path class="cls-1" d="M381.67,74.53h9.31v15.45h-9.31v-15.45Z"/>
      <path class="cls-1" d="M390.98,74.53h9.31v15.45h-9.31v-15.45Z"/>
      <path class="cls-1" d="M403.26,89.98v-15.45h1.12v15.45h-1.12ZM405.5,89.98v-15.45h1.12v15.45h-1.12Z"/>
      <path class="cls-1" d="M437.52,74.53h9.31v15.45h-9.31v-15.45Z"/>
      <path class="cls-1" d="M446.83,74.53h9.31v15.45h-9.31v-15.45Z"/>
      <path class="cls-1" d="M459.12,89.98v-15.45h1.12v15.45h-1.12ZM461.35,89.98v-15.45h1.12v15.45h-1.12Z"/>
      <path class="cls-1" d="M502.68,74.53h9.31v15.45h-9.31v-15.45Z"/>
      <path class="cls-1" d="M511.99,74.53h9.31v15.45h-9.31v-15.45Z"/>
      <path class="cls-1" d="M524.28,89.98v-15.45h1.12v15.45h-1.12ZM526.51,89.98v-15.45h1.12v15.45h-1.12Z"/>
      <path class="cls-1" d="M558.54,74.53h9.31v15.45h-9.31v-15.45Z"/>
      <path class="cls-1" d="M567.84,74.53h9.31v15.45h-9.31v-15.45Z"/>
      <path class="cls-1" d="M580.13,89.98v-15.45h1.12v15.45h-1.12ZM582.37,89.98v-15.45h1.12v15.45h-1.12Z"/>
      <path class="cls-1" d="M595.77,83.93h-6.33v-9.4h1.12v8.28h5.21v1.12ZM595.77,81.69h-4.1v-7.17h1.12v6.05h2.98v1.12Z"/>
      <path class="cls-1" d="M595.77,81.69v-1.12h9.31v1.12h-9.31ZM595.77,83.93v-1.12h9.31v1.12h-9.31Z"/>
      <path class="cls-1" d="M605.08,81.69v-1.12h9.31v1.12h-9.31ZM605.08,83.93v-1.12h9.31v1.12h-9.31Z"/>
      <path class="cls-1" d="M614.39,81.69v-1.12h9.31v1.12h-9.31ZM614.39,83.93v-1.12h9.31v1.12h-9.31Z"/>
      <path class="cls-1" d="M623.7,81.69v-1.12h9.31v1.12h-9.31ZM623.7,83.93v-1.12h9.31v1.12h-9.31Z"/>
      <path class="cls-1" d="M633.01,74.53h9.31v15.45h-9.31v-15.45Z"/>
      <path class="cls-1" d="M642.32,74.53h9.31v15.45h-9.31v-15.45Z"/>
      <path class="cls-1" d="M654.61,89.98v-15.45h1.12v15.45h-1.12ZM656.84,89.98v-15.45h1.12v15.45h-1.12Z"/>
      <path class="cls-1" d="M660.93,74.53h9.31v15.45h-9.31v-15.45Z"/>
      <path class="cls-1" d="M670.24,74.53h9.31v15.45h-9.31v-15.45Z"/>
      <path class="cls-1" d="M688.86,80.58v1.12h-5.21v8.28h-1.12v-9.4h6.33ZM688.86,83.93h-2.98v6.05h-1.12v-7.17h4.1v1.12Z"/>
      <path class="cls-1" d="M688.86,81.69v-1.12h9.31v1.12h-9.31ZM688.86,83.93v-1.12h9.31v1.12h-9.31Z"/>
      <path class="cls-1" d="M698.17,81.69v-1.12h9.31v1.12h-9.31ZM698.17,83.93v-1.12h9.31v1.12h-9.31Z"/>
      <path class="cls-1" d="M707.48,81.69v-1.12h9.31v1.12h-9.31ZM707.48,83.93v-1.12h9.31v1.12h-9.31Z"/>
      <path class="cls-1" d="M716.79,83.93v-1.12h5.21v-8.28h1.12v9.4h-6.33ZM716.79,81.69v-1.12h2.98v-6.05h1.12v7.17h-4.1Z"/>
      <path class="cls-1" d="M735.41,74.53h9.31v15.45h-9.31v-15.45Z"/>
      <path class="cls-1" d="M744.71,74.53h9.31v15.45h-9.31v-15.45Z"/>
      <path class="cls-1" d="M757,89.98v-15.45h1.12v15.45h-1.12ZM759.24,89.98v-15.45h1.12v15.45h-1.12Z"/>
      <path class="cls-1" d="M791.26,74.53h9.31v15.45h-9.31v-15.45Z"/>
      <path class="cls-1" d="M800.57,74.53h9.31v15.45h-9.31v-15.45Z"/>
      <path class="cls-1" d="M812.86,89.98v-15.45h1.12v15.45h-1.12ZM815.09,89.98v-15.45h1.12v15.45h-1.12Z"/>
      <path class="cls-1" d="M847.11,74.53h9.31v15.45h-9.31v-15.45Z"/>
      <path class="cls-1" d="M856.42,74.53h9.31v15.45h-9.31v-15.45Z"/>
      <path class="cls-1" d="M875.04,80.58v1.12h-5.21v8.28h-1.12v-9.4h6.33ZM875.04,83.93h-2.98v6.05h-1.12v-7.17h4.1v1.12Z"/>
      <path class="cls-1" d="M875.04,81.69v-1.12h9.31v1.12h-9.31ZM875.04,83.93v-1.12h9.31v1.12h-9.31Z"/>
      <path class="cls-1" d="M884.35,81.69v-1.12h9.31v1.12h-9.31ZM884.35,83.93v-1.12h9.31v1.12h-9.31Z"/>
      <path class="cls-1" d="M893.66,74.53h9.31v15.45h-9.31v-15.45Z"/>
      <path class="cls-1" d="M902.97,74.53h9.31v15.45h-9.31v-15.45Z"/>
      <path class="cls-1" d="M915.26,89.98v-15.45h1.12v15.45h-1.12ZM917.49,89.98v-15.45h1.12v15.45h-1.12Z"/>
      <path class="cls-1" d="M921.59,74.53h9.31v15.45h-9.31v-15.45Z"/>
      <path class="cls-1" d="M930.89,74.53h9.31v15.45h-9.31v-15.45Z"/>
      <path class="cls-1" d="M943.18,89.98v-15.45h1.12v15.45h-1.12ZM945.42,89.98v-15.45h1.12v15.45h-1.12Z"/>
      <path class="cls-1" d="M0,93.07h9.31v15.45H0v-15.45Z"/>
      <path class="cls-1" d="M9.31,93.07h9.31v15.45h-9.31v-15.45Z"/>
      <path class="cls-1" d="M21.6,108.52v-15.45h1.12v15.45h-1.12ZM23.83,108.52v-15.45h1.12v15.45h-1.12Z"/>
      <path class="cls-1" d="M46.54,102.47h-6.33v-9.4h1.12v8.28h5.21v1.12ZM46.54,100.23h-4.1v-7.17h1.12v6.05h2.98v1.12Z"/>
      <path class="cls-1" d="M46.54,100.23v-1.12h9.31v1.12h-9.31ZM46.54,102.47v-1.12h9.31v1.12h-9.31Z"/>
      <path class="cls-1" d="M55.85,102.47v-1.12h5.21v-8.28h1.12v9.4h-6.33ZM55.85,100.23v-1.12h2.98v-6.05h1.12v7.17h-4.1Z"/>
      <path class="cls-1" d="M74.47,93.07h9.31v15.45h-9.31v-15.45Z"/>
      <path class="cls-1" d="M83.78,93.07h9.31v15.45h-9.31v-15.45Z"/>
      <path class="cls-1" d="M96.07,108.52v-15.45h1.12v15.45h-1.12ZM98.3,108.52v-15.45h1.12v15.45h-1.12Z"/>
      <path class="cls-1" d="M102.4,93.07h9.31v15.45h-9.31v-15.45Z"/>
      <path class="cls-1" d="M111.71,93.07h9.31v15.45h-9.31v-15.45Z"/>
      <path class="cls-1" d="M124,108.52v-15.45h1.12v15.45h-1.12ZM126.23,108.52v-15.45h1.12v15.45h-1.12Z"/>
      <path class="cls-1" d="M148.94,93.07h9.31v15.45h-9.31v-15.45Z"/>
      <path class="cls-1" d="M158.25,93.07h9.31v15.45h-9.31v-15.45Z"/>
      <path class="cls-1" d="M170.54,108.52v-15.45h1.12v15.45h-1.12ZM172.77,108.52v-15.45h1.12v15.45h-1.12Z"/>
      <path class="cls-1" d="M176.87,93.07h9.31v15.45h-9.31v-15.45Z"/>
      <path class="cls-1" d="M186.18,93.07h9.31v15.45h-9.31v-15.45Z"/>
      <path class="cls-1" d="M204.8,99.12v1.12h-5.21v8.28h-1.12v-9.4h6.33ZM204.8,102.47h-2.98v6.05h-1.12v-7.17h4.1v1.12Z"/>
      <path class="cls-1" d="M204.8,102.47v-1.12h5.21v-8.28h1.12v9.4h-6.33ZM204.8,100.23v-1.12h2.98v-6.05h1.12v7.17h-4.1Z"/>
      <path class="cls-1" d="M223.41,93.07h9.31v15.45h-9.31v-15.45Z"/>
      <path class="cls-1" d="M232.72,93.07h9.31v15.45h-9.31v-15.45Z"/>
      <path class="cls-1" d="M242.03,100.23v-1.12h6.33v9.4h-1.12v-8.28h-5.21ZM242.03,102.47v-1.12h4.1v7.17h-1.12v-6.05h-2.98Z"/>
      <path class="cls-1" d="M251.34,93.07h9.31v15.45h-9.31v-15.45Z"/>
      <path class="cls-1" d="M260.65,93.07h9.31v15.45h-9.31v-15.45Z"/>
      <path class="cls-1" d="M272.94,108.52v-15.45h1.12v15.45h-1.12ZM275.17,108.52v-15.45h1.12v15.45h-1.12Z"/>
      <path class="cls-1" d="M279.27,93.07h9.31v15.45h-9.31v-15.45Z"/>
      <path class="cls-1" d="M288.58,93.07h9.31v15.45h-9.31v-15.45Z"/>
      <path class="cls-1" d="M300.87,108.52v-15.45h1.12v15.45h-1.12ZM303.1,108.52v-15.45h1.12v15.45h-1.12Z"/>
      <path class="cls-1" d="M325.81,102.47h-6.33v-9.4h1.12v8.28h5.21v1.12ZM325.81,100.23h-4.1v-7.17h1.12v6.05h2.98v1.12Z"/>
      <path class="cls-1" d="M325.81,100.23v-1.12h9.31v1.12h-9.31ZM325.81,102.47v-1.12h9.31v1.12h-9.31Z"/>
      <path class="cls-1" d="M335.12,102.47v-1.12h5.21v-8.28h1.12v9.4h-6.33ZM335.12,100.23v-1.12h2.98v-6.05h1.12v7.17h-4.1Z"/>
      <path class="cls-1" d="M353.74,93.07h9.31v15.45h-9.31v-15.45Z"/>
      <path class="cls-1" d="M363.05,93.07h9.31v15.45h-9.31v-15.45Z"/>
      <path class="cls-1" d="M375.34,108.52v-15.45h1.12v15.45h-1.12ZM377.57,108.52v-15.45h1.12v15.45h-1.12Z"/>
      <path class="cls-1" d="M390.98,102.47h-6.33v-9.4h1.12v8.28h5.21v1.12ZM390.98,100.23h-4.1v-7.17h1.12v6.05h2.98v1.12Z"/>
      <path class="cls-1" d="M390.98,93.07h9.31v15.45h-9.31v-15.45Z"/>
      <path class="cls-1" d="M400.28,93.07h9.31v15.45h-9.31v-15.45Z"/>
      <path class="cls-1" d="M409.59,93.07h9.31v15.45h-9.31v-15.45Z"/>
      <path class="cls-1" d="M418.9,93.07h9.31v15.45h-9.31v-15.45Z"/>
      <path class="cls-1" d="M428.21,93.07h9.31v15.45h-9.31v-15.45Z"/>
      <path class="cls-1" d="M437.52,93.07h9.31v15.45h-9.31v-15.45Z"/>
      <path class="cls-1" d="M456.14,99.12v1.12h-5.21v8.28h-1.12v-9.4h6.33ZM456.14,102.47h-2.98v6.05h-1.12v-7.17h4.1v1.12Z"/>
      <path class="cls-1" d="M456.14,102.47v-1.12h5.21v-8.28h1.12v9.4h-6.33ZM456.14,100.23v-1.12h2.98v-6.05h1.12v7.17h-4.1Z"/>
      <path class="cls-1" d="M511.99,102.47h-6.33v-9.4h1.12v8.28h5.21v1.12ZM511.99,100.23h-4.1v-7.17h1.12v6.05h2.98v1.12Z"/>
      <path class="cls-1" d="M511.99,93.07h9.31v15.45h-9.31v-15.45Z"/>
      <path class="cls-1" d="M521.3,93.07h9.31v15.45h-9.31v-15.45Z"/>
      <path class="cls-1" d="M530.61,93.07h9.31v15.45h-9.31v-15.45Z"/>
      <path class="cls-1" d="M539.92,93.07h9.31v15.45h-9.31v-15.45Z"/>
      <path class="cls-1" d="M549.23,93.07h9.31v15.45h-9.31v-15.45Z"/>
      <path class="cls-1" d="M558.54,93.07h9.31v15.45h-9.31v-15.45Z"/>
      <path class="cls-1" d="M577.15,99.12v1.12h-5.21v8.28h-1.12v-9.4h6.33ZM577.15,102.47h-2.98v6.05h-1.12v-7.17h4.1v1.12Z"/>
      <path class="cls-1" d="M577.15,102.47v-1.12h5.21v-8.28h1.12v9.4h-6.33ZM577.15,100.23v-1.12h2.98v-6.05h1.12v7.17h-4.1Z"/>
      <path class="cls-1" d="M586.46,93.07h9.31v15.45h-9.31v-15.45Z"/>
      <path class="cls-1" d="M595.77,93.07h9.31v15.45h-9.31v-15.45Z"/>
      <path class="cls-1" d="M605.08,93.07h9.31v15.45h-9.31v-15.45Z"/>
      <path class="cls-1" d="M614.39,93.07h9.31v15.45h-9.31v-15.45Z"/>
      <path class="cls-1" d="M623.7,93.07h9.31v15.45h-9.31v-15.45Z"/>
      <path class="cls-1" d="M633.01,93.07h9.31v15.45h-9.31v-15.45Z"/>
      <path class="cls-1" d="M642.32,93.07h9.31v15.45h-9.31v-15.45Z"/>
      <path class="cls-1" d="M654.61,108.52v-15.45h1.12v15.45h-1.12ZM656.84,108.52v-15.45h1.12v15.45h-1.12Z"/>
      <path class="cls-1" d="M660.93,93.07h9.31v15.45h-9.31v-15.45Z"/>
      <path class="cls-1" d="M670.24,93.07h9.31v15.45h-9.31v-15.45Z"/>
      <path class="cls-1" d="M682.53,108.52v-15.45h1.12v15.45h-1.12ZM684.77,108.52v-15.45h1.12v15.45h-1.12Z"/>
      <path class="cls-1" d="M735.41,93.07h9.31v15.45h-9.31v-15.45Z"/>
      <path class="cls-1" d="M744.71,93.07h9.31v15.45h-9.31v-15.45Z"/>
      <path class="cls-1" d="M757,108.52v-15.45h1.12v15.45h-1.12ZM759.24,108.52v-15.45h1.12v15.45h-1.12Z"/>
      <path class="cls-1" d="M791.26,93.07h9.31v15.45h-9.31v-15.45Z"/>
      <path class="cls-1" d="M800.57,93.07h9.31v15.45h-9.31v-15.45Z"/>
      <path class="cls-1" d="M812.86,108.52v-15.45h1.12v15.45h-1.12ZM815.09,108.52v-15.45h1.12v15.45h-1.12Z"/>
      <path class="cls-1" d="M847.11,93.07h9.31v15.45h-9.31v-15.45Z"/>
      <path class="cls-1" d="M856.42,93.07h9.31v15.45h-9.31v-15.45Z"/>
      <path class="cls-1" d="M868.71,108.52v-15.45h1.12v15.45h-1.12ZM870.94,108.52v-15.45h1.12v15.45h-1.12Z"/>
      <path class="cls-1" d="M893.66,93.07h9.31v15.45h-9.31v-15.45Z"/>
      <path class="cls-1" d="M902.97,93.07h9.31v15.45h-9.31v-15.45Z"/>
      <path class="cls-1" d="M915.26,108.52v-15.45h1.12v15.45h-1.12ZM917.49,108.52v-15.45h1.12v15.45h-1.12Z"/>
      <path class="cls-1" d="M921.59,93.07h9.31v15.45h-9.31v-15.45Z"/>
      <path class="cls-1" d="M930.89,93.07h9.31v15.45h-9.31v-15.45Z"/>
      <path class="cls-1" d="M940.2,93.07h9.31v15.45h-9.31v-15.45Z"/>
      <path class="cls-1" d="M949.51,93.07h9.31v15.45h-9.31v-15.45Z"/>
      <path class="cls-1" d="M958.82,93.07h9.31v15.45h-9.31v-15.45Z"/>
      <path class="cls-1" d="M968.13,93.07h9.31v15.45h-9.31v-15.45Z"/>
      <path class="cls-1" d="M977.44,93.07h9.31v15.45h-9.31v-15.45Z"/>
      <path class="cls-1" d="M986.75,100.23v-1.12h6.33v9.4h-1.12v-8.28h-5.21ZM986.75,102.47v-1.12h4.1v7.17h-1.12v-6.05h-2.98Z"/>
      <path class="cls-1" d="M9.31,121.01H2.98v-9.4h1.12v8.28h5.21v1.12ZM9.31,118.77h-4.1v-7.17h1.12v6.05h2.98v1.12Z"/>
      <path class="cls-1" d="M9.31,118.77v-1.12h9.31v1.12h-9.31ZM9.31,121.01v-1.12h9.31v1.12h-9.31Z"/>
      <path class="cls-1" d="M18.62,121.01v-1.12h5.21v-8.28h1.12v9.4h-6.33ZM18.62,118.77v-1.12h2.98v-6.05h1.12v7.17h-4.1Z"/>
      <path class="cls-1" d="M83.78,121.01h-6.33v-9.4h1.12v8.28h5.21v1.12ZM83.78,118.77h-4.1v-7.17h1.12v6.05h2.98v1.12Z"/>
      <path class="cls-1" d="M83.78,118.77v-1.12h9.31v1.12h-9.31ZM83.78,121.01v-1.12h9.31v1.12h-9.31Z"/>
      <path class="cls-1" d="M93.09,121.01v-1.12h5.21v-8.28h1.12v9.4h-6.33ZM93.09,118.77v-1.12h2.98v-6.05h1.12v7.17h-4.1Z"/>
      <path class="cls-1" d="M111.71,121.01h-6.33v-9.4h1.12v8.28h5.21v1.12ZM111.71,118.77h-4.1v-7.17h1.12v6.05h2.98v1.12Z"/>
      <path class="cls-1" d="M111.71,118.77v-1.12h9.31v1.12h-9.31ZM111.71,121.01v-1.12h9.31v1.12h-9.31Z"/>
      <path class="cls-1" d="M121.02,121.01v-1.12h5.21v-8.28h1.12v9.4h-6.33ZM121.02,118.77v-1.12h2.98v-6.05h1.12v7.17h-4.1Z"/>
      <path class="cls-1" d="M158.25,121.01h-6.33v-9.4h1.12v8.28h5.21v1.12ZM158.25,118.77h-4.1v-7.17h1.12v6.05h2.98v1.12Z"/>
      <path class="cls-1" d="M158.25,118.77v-1.12h9.31v1.12h-9.31ZM158.25,121.01v-1.12h9.31v1.12h-9.31Z"/>
      <path class="cls-1" d="M167.56,121.01v-1.12h5.21v-8.28h1.12v9.4h-6.33ZM167.56,118.77v-1.12h2.98v-6.05h1.12v7.17h-4.1Z"/>
      <path class="cls-1" d="M186.18,121.01h-6.33v-9.4h1.12v8.28h5.21v1.12ZM186.18,118.77h-4.1v-7.17h1.12v6.05h2.98v1.12Z"/>
      <path class="cls-1" d="M186.18,118.77v-1.12h9.31v1.12h-9.31ZM186.18,121.01v-1.12h9.31v1.12h-9.31Z"/>
      <path class="cls-1" d="M195.49,121.01v-1.12h5.21v-8.28h1.12v9.4h-6.33ZM195.49,118.77v-1.12h2.98v-6.05h1.12v7.17h-4.1Z"/>
      <path class="cls-1" d="M232.72,121.01h-6.33v-9.4h1.12v8.28h5.21v1.12ZM232.72,118.77h-4.1v-7.17h1.12v6.05h2.98v1.12Z"/>
      <path class="cls-1" d="M232.72,118.77v-1.12h9.31v1.12h-9.31ZM232.72,121.01v-1.12h9.31v1.12h-9.31Z"/>
      <path class="cls-1" d="M242.03,121.01v-1.12h5.21v-8.28h1.12v9.4h-6.33ZM242.03,118.77v-1.12h2.98v-6.05h1.12v7.17h-4.1Z"/>
      <path class="cls-1" d="M260.65,121.01h-6.33v-9.4h1.12v8.28h5.21v1.12ZM260.65,118.77h-4.1v-7.17h1.12v6.05h2.98v1.12Z"/>
      <path class="cls-1" d="M260.65,118.77v-1.12h9.31v1.12h-9.31ZM260.65,121.01v-1.12h9.31v1.12h-9.31Z"/>
      <path class="cls-1" d="M269.96,121.01v-1.12h5.21v-8.28h1.12v9.4h-6.33ZM269.96,118.77v-1.12h2.98v-6.05h1.12v7.17h-4.1Z"/>
      <path class="cls-1" d="M288.58,121.01h-6.33v-9.4h1.12v8.28h5.21v1.12ZM288.58,118.77h-4.1v-7.17h1.12v6.05h2.98v1.12Z"/>
      <path class="cls-1" d="M288.58,118.77v-1.12h9.31v1.12h-9.31ZM288.58,121.01v-1.12h9.31v1.12h-9.31Z"/>
      <path class="cls-1" d="M297.89,121.01v-1.12h5.21v-8.28h1.12v9.4h-6.33ZM297.89,118.77v-1.12h2.98v-6.05h1.12v7.17h-4.1Z"/>
      <path class="cls-1" d="M363.05,121.01h-6.33v-9.4h1.12v8.28h5.21v1.12ZM363.05,118.77h-4.1v-7.17h1.12v6.05h2.98v1.12Z"/>
      <path class="cls-1" d="M363.05,118.77v-1.12h9.31v1.12h-9.31ZM363.05,121.01v-1.12h9.31v1.12h-9.31Z"/>
      <path class="cls-1" d="M372.36,121.01v-1.12h5.21v-8.28h1.12v9.4h-6.33ZM372.36,118.77v-1.12h2.98v-6.05h1.12v7.17h-4.1Z"/>
      <path class="cls-1" d="M400.28,121.01h-6.33v-9.4h1.12v8.28h5.21v1.12ZM400.28,118.77h-4.1v-7.17h1.12v6.05h2.98v1.12Z"/>
      <path class="cls-1" d="M400.28,118.77v-1.12h9.31v1.12h-9.31ZM400.28,121.01v-1.12h9.31v1.12h-9.31Z"/>
      <path class="cls-1" d="M409.59,118.77v-1.12h9.31v1.12h-9.31ZM409.59,121.01v-1.12h9.31v1.12h-9.31Z"/>
      <path class="cls-1" d="M418.9,118.77v-1.12h9.31v1.12h-9.31ZM418.9,121.01v-1.12h9.31v1.12h-9.31Z"/>
      <path class="cls-1" d="M428.21,118.77v-1.12h9.31v1.12h-9.31ZM428.21,121.01v-1.12h9.31v1.12h-9.31Z"/>
      <path class="cls-1" d="M437.52,118.77v-1.12h9.31v1.12h-9.31ZM437.52,121.01v-1.12h9.31v1.12h-9.31Z"/>
      <path class="cls-1" d="M446.83,121.01v-1.12h5.21v-8.28h1.12v9.4h-6.33ZM446.83,118.77v-1.12h2.98v-6.05h1.12v7.17h-4.1Z"/>
      <path class="cls-1" d="M521.3,121.01h-6.33v-9.4h1.12v8.28h5.21v1.12ZM521.3,118.77h-4.1v-7.17h1.12v6.05h2.98v1.12Z"/>
      <path class="cls-1" d="M521.3,118.77v-1.12h9.31v1.12h-9.31ZM521.3,121.01v-1.12h9.31v1.12h-9.31Z"/>
      <path class="cls-1" d="M530.61,118.77v-1.12h9.31v1.12h-9.31ZM530.61,121.01v-1.12h9.31v1.12h-9.31Z"/>
      <path class="cls-1" d="M539.92,118.77v-1.12h9.31v1.12h-9.31ZM539.92,121.01v-1.12h9.31v1.12h-9.31Z"/>
      <path class="cls-1" d="M549.23,118.77v-1.12h9.31v1.12h-9.31ZM549.23,121.01v-1.12h9.31v1.12h-9.31Z"/>
      <path class="cls-1" d="M558.54,118.77v-1.12h9.31v1.12h-9.31ZM558.54,121.01v-1.12h9.31v1.12h-9.31Z"/>
      <path class="cls-1" d="M567.84,121.01v-1.12h5.21v-8.28h1.12v9.4h-6.33ZM567.84,118.77v-1.12h2.98v-6.05h1.12v7.17h-4.1Z"/>
      <path class="cls-1" d="M595.77,121.01h-6.33v-9.4h1.12v8.28h5.21v1.12ZM595.77,118.77h-4.1v-7.17h1.12v6.05h2.98v1.12Z"/>
      <path class="cls-1" d="M595.77,118.77v-1.12h9.31v1.12h-9.31ZM595.77,121.01v-1.12h9.31v1.12h-9.31Z"/>
      <path class="cls-1" d="M605.08,118.77v-1.12h9.31v1.12h-9.31ZM605.08,121.01v-1.12h9.31v1.12h-9.31Z"/>
      <path class="cls-1" d="M614.39,118.77v-1.12h9.31v1.12h-9.31ZM614.39,121.01v-1.12h9.31v1.12h-9.31Z"/>
      <path class="cls-1" d="M623.7,118.77v-1.12h9.31v1.12h-9.31ZM623.7,121.01v-1.12h9.31v1.12h-9.31Z"/>
      <path class="cls-1" d="M633.01,118.77v-1.12h9.31v1.12h-9.31ZM633.01,121.01v-1.12h9.31v1.12h-9.31Z"/>
      <path class="cls-1" d="M642.32,118.77v-1.12h9.31v1.12h-9.31ZM642.32,121.01v-1.12h9.31v1.12h-9.31Z"/>
      <path class="cls-1" d="M651.62,121.01v-1.12h5.21v-8.28h1.12v9.4h-6.33ZM651.62,118.77v-1.12h2.98v-6.05h1.12v7.17h-4.1Z"/>
      <path class="cls-1" d="M670.24,121.01h-6.33v-9.4h1.12v8.28h5.21v1.12ZM670.24,118.77h-4.1v-7.17h1.12v6.05h2.98v1.12Z"/>
      <path class="cls-1" d="M670.24,118.77v-1.12h9.31v1.12h-9.31ZM670.24,121.01v-1.12h9.31v1.12h-9.31Z"/>
      <path class="cls-1" d="M679.55,121.01v-1.12h5.21v-8.28h1.12v9.4h-6.33ZM679.55,118.77v-1.12h2.98v-6.05h1.12v7.17h-4.1Z"/>
      <path class="cls-1" d="M744.71,121.01h-6.33v-9.4h1.12v8.28h5.21v1.12ZM744.71,118.77h-4.1v-7.17h1.12v6.05h2.98v1.12Z"/>
      <path class="cls-1" d="M744.71,118.77v-1.12h9.31v1.12h-9.31ZM744.71,121.01v-1.12h9.31v1.12h-9.31Z"/>
      <path class="cls-1" d="M754.02,121.01v-1.12h5.21v-8.28h1.12v9.4h-6.33ZM754.02,118.77v-1.12h2.98v-6.05h1.12v7.17h-4.1Z"/>
      <path class="cls-1" d="M800.57,121.01h-6.33v-9.4h1.12v8.28h5.21v1.12ZM800.57,118.77h-4.1v-7.17h1.12v6.05h2.98v1.12Z"/>
      <path class="cls-1" d="M800.57,118.77v-1.12h9.31v1.12h-9.31ZM800.57,121.01v-1.12h9.31v1.12h-9.31Z"/>
      <path class="cls-1" d="M809.88,121.01v-1.12h5.21v-8.28h1.12v9.4h-6.33ZM809.88,118.77v-1.12h2.98v-6.05h1.12v7.17h-4.1Z"/>
      <path class="cls-1" d="M856.42,121.01h-6.33v-9.4h1.12v8.28h5.21v1.12ZM856.42,118.77h-4.1v-7.17h1.12v6.05h2.98v1.12Z"/>
      <path class="cls-1" d="M856.42,118.77v-1.12h9.31v1.12h-9.31ZM856.42,121.01v-1.12h9.31v1.12h-9.31Z"/>
      <path class="cls-1" d="M865.73,121.01v-1.12h5.21v-8.28h1.12v9.4h-6.33ZM865.73,118.77v-1.12h2.98v-6.05h1.12v7.17h-4.1Z"/>
      <path class="cls-1" d="M902.97,121.01h-6.33v-9.4h1.12v8.28h5.21v1.12ZM902.97,118.77h-4.1v-7.17h1.12v6.05h2.98v1.12Z"/>
      <path class="cls-1" d="M902.97,118.77v-1.12h9.31v1.12h-9.31ZM902.97,121.01v-1.12h9.31v1.12h-9.31Z"/>
      <path class="cls-1" d="M912.28,121.01v-1.12h5.21v-8.28h1.12v9.4h-6.33ZM912.28,118.77v-1.12h2.98v-6.05h1.12v7.17h-4.1Z"/>
      <path class="cls-1" d="M930.89,121.01h-6.33v-9.4h1.12v8.28h5.21v1.12ZM930.89,118.77h-4.1v-7.17h1.12v6.05h2.98v1.12Z"/>
      <path class="cls-1" d="M930.89,118.77v-1.12h9.31v1.12h-9.31ZM930.89,121.01v-1.12h9.31v1.12h-9.31Z"/>
      <path class="cls-1" d="M940.2,118.77v-1.12h9.31v1.12h-9.31ZM940.2,121.01v-1.12h9.31v1.12h-9.31Z"/>
      <path class="cls-1" d="M949.51,118.77v-1.12h9.31v1.12h-9.31ZM949.51,121.01v-1.12h9.31v1.12h-9.31Z"/>
      <path class="cls-1" d="M958.82,118.77v-1.12h9.31v1.12h-9.31ZM958.82,121.01v-1.12h9.31v1.12h-9.31Z"/>
      <path class="cls-1" d="M968.13,118.77v-1.12h9.31v1.12h-9.31ZM968.13,121.01v-1.12h9.31v1.12h-9.31Z"/>
      <path class="cls-1" d="M977.44,118.77v-1.12h9.31v1.12h-9.31ZM977.44,121.01v-1.12h9.31v1.12h-9.31Z"/>
      <path class="cls-1" d="M986.75,121.01v-1.12h5.21v-8.28h1.12v9.4h-6.33ZM986.75,118.77v-1.12h2.98v-6.05h1.12v7.17h-4.1Z"/>
    </g>
  </g>
</svg>